# xmcd
#
# Track frame offsets:
#	150
#	17550
#	34950
#
# Disc length: 753 seconds
#
# Revision: 1
# Processed by: cddbd v1.5.2PL0 Copyright (c) Steve Scherf et al.
# Submitted via: EasyCDDAExtractor 10.0.3.1
#
DISCID=1b02ef03
DTITLE=TIME SQUARE - SINGLE
DYEAR=2004
DGENRE=
TTITLE0=Kiedy Wreszcie Cię Dogonię - MIX 1
TTITLE1=Kiedy Wreszcie Cię Dogonię - MIX 2
TTITLE2=Kiedy Wreszcie Cię Dogonie - REMIX - DJ FREAK
EXTD=YEAR: 2004
EXTT0=
EXTT1=
EXTT2=
PLAYORDER=
